<svg id="svg" version="1.1" xmlns="http://www.w3.org/2000/svg" xmlns:xlink="http://www.w3.org/1999/xlink" width="400" height="400" viewBox="0, 0, 400,400"><g id="svgg"><path id="path0" d="M98.800 90.400 C 98.800 90.620,99.059 90.800,99.376 90.800 C 99.693 90.800,100.064 90.620,100.200 90.400 C 100.336 90.180,100.077 90.000,99.624 90.000 C 99.171 90.000,98.800 90.180,98.800 90.400 M104.000 90.400 C 104.000 90.620,104.450 90.800,105.000 90.800 C 105.550 90.800,106.000 90.980,106.000 91.200 C 106.000 91.420,106.291 91.600,106.646 91.600 C 107.001 91.600,107.939 92.365,108.730 93.300 C 110.326 95.187,112.096 96.956,126.760 111.323 C 132.330 116.781,136.953 121.180,137.034 121.099 C 137.348 120.785,108.112 91.633,106.688 90.841 C 105.057 89.934,104.000 89.760,104.000 90.400 M294.600 90.400 C 294.464 90.620,294.723 90.800,295.176 90.800 C 295.629 90.800,296.000 90.620,296.000 90.400 C 296.000 90.180,295.741 90.000,295.424 90.000 C 295.107 90.000,294.736 90.180,294.600 90.400 M300.000 90.400 C 300.000 90.620,300.270 90.800,300.600 90.800 C 300.930 90.800,301.200 90.620,301.200 90.400 C 301.200 90.180,300.930 90.000,300.600 90.000 C 300.270 90.000,300.000 90.180,300.000 90.400 M275.800 107.891 C 267.000 116.847,257.010 127.042,253.600 130.546 C 250.190 134.051,240.920 143.430,233.000 151.389 C 225.080 159.348,215.000 169.620,210.600 174.215 C 206.200 178.811,196.930 188.256,190.000 195.206 C 183.070 202.156,174.408 210.982,170.751 214.821 C 167.094 218.659,158.409 227.545,151.450 234.566 C 144.492 241.587,138.878 247.411,138.974 247.508 C 139.179 247.712,171.812 215.099,174.214 212.289 C 175.102 211.250,185.002 201.162,196.214 189.870 C 214.700 171.253,221.191 164.614,221.205 164.308 C 221.208 164.248,229.991 155.394,240.724 144.630 C 251.456 133.867,260.859 124.243,261.619 123.245 C 262.378 122.247,267.317 117.193,272.594 112.015 C 291.528 93.433,293.290 91.589,292.100 91.604 C 291.935 91.606,284.600 98.935,275.800 107.891 M61.882 126.452 C 53.567 134.837,46.868 141.801,46.995 141.928 C 47.282 142.215,77.200 112.191,77.200 111.616 C 77.200 110.978,77.887 110.313,61.882 126.452 M326.004 114.735 C 325.999 115.381,352.683 142.250,353.008 141.926 C 353.133 141.800,347.110 135.511,339.622 127.949 C 332.135 120.387,326.007 114.441,326.004 114.735 M138.829 123.411 C 139.363 124.077,140.070 124.955,140.400 125.363 C 140.730 125.771,150.242 135.396,161.539 146.752 C 172.835 158.108,182.455 167.927,182.916 168.571 C 183.377 169.214,184.260 170.224,184.877 170.814 C 185.495 171.404,186.000 172.283,186.000 172.767 C 186.000 173.252,186.180 173.536,186.400 173.400 C 187.410 172.776,186.479 171.314,182.300 166.960 C 175.487 159.862,137.718 122.025,138.829 123.411 M42.800 147.400 C 42.800 147.730,42.980 148.000,43.200 148.000 C 43.420 148.000,43.600 147.730,43.600 147.400 C 43.600 147.070,43.420 146.800,43.200 146.800 C 42.980 146.800,42.800 147.070,42.800 147.400 M356.400 147.400 C 356.400 147.730,356.580 148.000,356.800 148.000 C 357.020 148.000,357.200 147.730,357.200 147.400 C 357.200 147.070,357.020 146.800,356.800 146.800 C 356.580 146.800,356.400 147.070,356.400 147.400 M42.800 153.400 C 42.800 153.730,42.980 154.000,43.200 154.000 C 43.420 154.000,43.600 153.730,43.600 153.400 C 43.600 153.070,43.420 152.800,43.200 152.800 C 42.980 152.800,42.800 153.070,42.800 153.400 M356.400 153.400 C 356.400 153.730,356.580 154.000,356.800 154.000 C 357.020 154.000,357.200 153.730,357.200 153.400 C 357.200 153.070,357.020 152.800,356.800 152.800 C 356.580 152.800,356.400 153.070,356.400 153.400 M46.830 159.074 C 47.364 159.665,49.510 161.876,51.600 163.988 C 53.690 166.100,58.010 170.603,61.200 173.995 C 64.390 177.387,73.390 186.579,81.200 194.421 C 95.430 208.710,102.687 216.090,115.459 229.258 C 119.224 233.140,122.731 236.441,123.252 236.595 L 124.200 236.874 123.200 236.147 C 122.208 235.425,119.502 232.597,117.413 230.098 C 114.938 227.136,96.486 208.322,59.747 171.300 C 52.488 163.985,46.393 158.000,46.204 158.000 C 46.015 158.000,46.297 158.483,46.830 159.074 M350.558 160.930 C 349.434 162.068,346.554 164.902,344.158 167.227 C 339.684 171.566,326.000 185.571,326.000 185.809 C 326.000 186.062,322.269 189.863,303.040 209.200 C 292.429 219.870,283.630 228.915,283.486 229.300 C 283.343 229.685,282.949 230.000,282.613 230.000 C 282.276 230.000,282.000 230.236,282.000 230.524 C 282.000 231.002,267.839 245.401,224.292 289.200 C 207.821 305.766,205.001 308.734,205.373 309.106 C 205.624 309.357,232.356 282.571,243.000 271.402 C 246.740 267.477,256.010 258.024,263.600 250.393 C 271.190 242.763,281.180 232.587,285.800 227.780 C 290.420 222.972,301.310 211.909,310.000 203.196 C 318.690 194.483,329.850 183.142,334.800 177.993 C 339.750 172.845,345.690 166.730,348.000 164.406 C 352.585 159.792,353.479 158.785,352.949 158.830 C 352.757 158.846,351.681 159.791,350.558 160.930 M168.100 191.368 C 158.585 200.903,150.800 208.828,150.800 208.981 C 150.800 209.418,147.812 212.521,135.666 224.700 C 129.432 230.951,124.423 236.156,124.534 236.267 C 124.776 236.509,134.041 227.242,151.200 209.595 C 158.130 202.468,167.850 192.561,172.800 187.579 C 184.799 175.502,186.240 173.997,185.786 174.016 C 185.574 174.026,177.615 181.834,168.100 191.368 M137.005 250.400 C 137.172 250.950,140.034 254.190,143.365 257.600 C 146.695 261.010,151.396 265.856,153.810 268.368 C 163.947 278.917,195.290 310.000,195.790 310.000 C 196.089 310.000,196.399 310.198,196.480 310.440 C 196.734 311.203,202.569 310.970,203.827 310.146 C 204.546 309.675,204.730 309.377,204.375 309.258 C 204.081 309.160,203.771 309.287,203.687 309.540 C 203.492 310.125,196.400 310.184,196.400 309.600 C 196.400 309.380,196.124 309.200,195.787 309.200 C 194.982 309.200,176.312 290.414,154.006 267.159 C 140.197 252.763,136.665 249.281,137.005 250.400 " stroke="none" fill="#898989" fill-rule="evenodd"></path><path id="path1" d="M101.139 91.237 C 97.037 91.521,96.400 91.707,96.400 92.624 C 96.400 93.152,95.903 93.382,95.070 93.237 C 94.889 93.206,94.841 93.343,94.964 93.542 C 95.408 94.260,89.577 100.373,59.390 130.844 L 43.780 146.600 43.790 150.500 C 43.795 152.645,43.896 154.400,44.014 154.400 C 44.446 154.400,45.570 156.698,45.289 157.008 C 45.130 157.184,45.244 157.187,45.543 157.014 C 46.056 156.717,76.961 187.341,90.749 201.807 C 98.465 209.903,123.698 235.200,124.057 235.200 C 124.370 235.200,126.654 232.874,134.444 224.621 C 136.510 222.433,146.944 211.813,157.632 201.021 C 178.847 179.600,185.438 172.820,185.329 172.532 C 185.185 172.149,164.619 150.991,151.763 138.000 C 132.061 118.091,127.463 113.410,122.449 108.163 C 113.731 99.038,106.696 92.000,106.293 92.000 C 106.071 92.000,105.688 91.768,105.444 91.484 C 105.108 91.094,104.065 91.034,101.139 91.237 M294.400 91.529 C 294.400 91.823,294.088 91.993,293.700 91.912 C 293.285 91.824,292.718 92.179,292.308 92.782 C 291.395 94.124,277.025 108.910,255.954 130.187 C 246.578 139.654,236.858 149.553,234.354 152.185 C 231.849 154.816,221.678 165.166,211.751 175.185 C 201.824 185.203,192.284 194.924,190.551 196.786 C 188.818 198.648,178.471 209.178,167.557 220.186 C 156.643 231.194,146.833 241.118,145.757 242.240 C 139.566 248.695,138.352 250.052,138.470 250.381 C 138.541 250.580,146.250 258.461,155.600 267.893 C 164.950 277.325,173.770 286.293,175.200 287.822 C 176.630 289.351,180.793 293.752,184.452 297.601 C 188.111 301.450,191.801 305.444,192.652 306.474 C 193.503 307.505,194.503 308.360,194.874 308.374 C 195.245 308.389,196.055 308.608,196.674 308.862 C 198.263 309.514,202.001 309.553,203.194 308.930 C 203.747 308.641,204.473 308.404,204.807 308.402 C 205.141 308.401,205.681 307.965,206.007 307.433 C 206.833 306.086,222.022 290.418,244.038 268.205 C 254.289 257.862,264.369 247.608,266.438 245.419 C 268.507 243.229,278.592 232.969,288.849 222.619 C 299.106 212.268,308.646 202.547,310.049 201.015 C 311.452 199.483,322.273 188.503,334.096 176.615 C 345.918 164.727,355.593 154.865,355.596 154.700 C 355.598 154.535,355.735 154.400,355.900 154.400 C 356.353 154.400,356.260 146.669,355.800 146.138 C 355.580 145.884,346.580 136.785,335.800 125.918 C 325.020 115.051,314.850 104.724,313.200 102.967 C 307.724 97.139,304.999 93.984,305.100 93.590 C 305.155 93.375,305.065 93.221,304.900 93.247 C 304.016 93.387,303.600 93.116,303.600 92.400 C 303.600 91.813,303.333 91.600,302.600 91.600 C 302.050 91.600,301.600 91.465,301.600 91.300 C 301.600 91.135,299.980 91.000,298.001 91.000 C 295.281 91.000,294.401 91.129,294.400 91.529 " stroke="none" fill="#040404" fill-rule="evenodd"></path><path id="path2" d="M119.285 104.194 C 120.982 105.937,122.425 107.282,122.492 107.182 C 122.559 107.082,121.171 105.656,119.407 104.012 L 116.200 101.025 119.285 104.194 M278.162 106.405 C 275.941 108.602,274.234 110.400,274.369 110.400 C 274.504 110.400,276.408 108.600,278.600 106.400 C 280.792 104.200,282.498 102.402,282.392 102.405 C 282.287 102.408,280.383 104.208,278.162 106.405 M79.797 108.617 C 78.314 110.057,77.201 111.334,77.322 111.455 C 77.524 111.657,81.055 108.308,82.349 106.687 C 83.478 105.273,82.407 106.083,79.797 108.617 M319.630 108.671 C 322.173 111.480,325.681 114.853,325.866 114.668 C 326.092 114.442,319.383 107.600,318.936 107.600 C 318.784 107.600,319.097 108.082,319.630 108.671 M268.319 116.144 C 265.394 119.083,262.393 122.278,261.651 123.244 C 260.909 124.210,261.785 123.470,263.598 121.600 C 265.411 119.730,268.534 116.535,270.539 114.500 C 272.544 112.465,274.061 110.800,273.911 110.800 C 273.761 110.800,271.245 113.205,268.319 116.144 M130.000 115.000 C 130.517 115.550,131.080 116.000,131.252 116.000 C 131.423 116.000,131.114 115.550,130.564 115.000 C 130.014 114.450,129.450 114.000,129.312 114.000 C 129.174 114.000,129.483 114.450,130.000 115.000 M132.822 117.853 C 136.598 121.833,141.283 126.548,141.057 126.139 C 140.332 124.831,132.266 116.400,131.739 116.400 C 131.576 116.400,132.063 117.054,132.822 117.853 M70.042 119.154 C 69.514 119.729,65.285 124.070,60.643 128.800 L 52.202 137.400 61.784 127.916 C 67.054 122.700,71.283 118.359,71.183 118.270 C 71.082 118.180,70.569 118.578,70.042 119.154 M330.400 119.937 C 330.400 120.086,334.398 124.165,339.285 129.003 C 344.172 133.842,348.087 137.679,347.985 137.532 C 347.469 136.785,330.400 119.707,330.400 119.937 M239.303 145.955 C 229.349 155.990,221.204 164.266,221.203 164.347 C 221.201 164.428,220.525 165.163,219.700 165.980 C 218.875 166.798,217.750 167.980,217.200 168.606 C 216.650 169.233,225.470 160.424,236.800 149.032 C 254.571 131.164,258.268 127.352,257.533 127.655 C 257.460 127.685,249.256 135.920,239.303 145.955 M145.600 131.144 C 145.600 131.510,161.543 147.406,161.685 147.181 C 161.748 147.082,158.155 143.373,153.700 138.941 C 149.245 134.508,145.600 131.000,145.600 131.144 M164.800 150.600 C 165.546 151.370,166.247 152.000,166.357 152.000 C 166.467 152.000,165.946 151.370,165.200 150.600 C 164.454 149.830,163.753 149.200,163.643 149.200 C 163.533 149.200,164.054 149.830,164.800 150.600 M173.456 159.225 C 182.572 168.638,183.668 169.728,182.886 168.600 C 181.986 167.300,171.880 156.966,170.589 156.025 C 170.155 155.708,171.445 157.148,173.456 159.225 M60.200 171.706 C 65.260 176.827,69.482 180.961,69.582 180.893 C 69.779 180.759,51.537 162.401,51.203 162.398 C 51.091 162.397,55.140 166.585,60.200 171.706 M346.783 164.300 L 345.000 166.200 346.993 164.400 C 348.088 163.410,349.063 162.555,349.159 162.500 C 349.255 162.445,349.161 162.400,348.950 162.400 C 348.739 162.400,347.764 163.255,346.783 164.300 M343.375 167.700 L 342.200 169.000 343.500 167.825 C 344.215 167.179,344.800 166.594,344.800 166.525 C 344.800 166.216,344.470 166.488,343.375 167.700 M197.200 188.851 C 187.410 198.723,178.371 207.835,177.113 209.100 C 175.855 210.365,174.270 212.076,173.592 212.902 C 172.914 213.728,181.953 204.760,193.679 192.971 C 212.088 174.466,215.864 170.572,215.133 170.851 C 215.060 170.879,206.990 178.979,197.200 188.851 M334.295 176.705 C 331.273 179.733,328.800 182.348,328.800 182.516 C 328.800 182.684,329.565 182.033,330.500 181.070 C 331.435 180.106,333.997 177.492,336.192 175.259 C 338.388 173.027,340.096 171.200,339.987 171.200 C 339.878 171.200,337.317 173.677,334.295 176.705 M70.000 181.417 C 70.000 181.537,70.475 182.122,71.056 182.717 L 72.112 183.800 71.229 182.500 C 70.394 181.272,70.000 180.925,70.000 181.417 M76.393 188.100 C 78.699 190.465,80.634 192.400,80.693 192.400 C 80.982 192.400,80.494 191.887,76.500 187.993 L 72.200 183.800 76.393 188.100 M165.097 193.903 C 160.094 198.910,156.000 203.129,156.000 203.279 C 156.000 203.429,160.089 199.414,165.086 194.357 C 170.083 189.299,174.253 185.080,174.353 184.981 C 174.452 184.881,174.457 184.800,174.363 184.800 C 174.270 184.800,170.100 188.896,165.097 193.903 M324.193 187.207 C 323.337 188.083,322.796 188.800,322.990 188.800 C 323.391 188.800,326.087 185.954,325.882 185.749 C 325.808 185.675,325.048 186.331,324.193 187.207 M304.400 207.269 C 294.610 217.139,286.545 225.378,286.477 225.577 C 286.392 225.826,319.820 192.480,322.767 189.376 C 322.858 189.279,322.768 189.227,322.567 189.261 C 322.365 189.295,314.190 197.398,304.400 207.269 M146.309 213.309 C 143.960 215.763,142.110 217.843,142.197 217.931 C 142.351 218.084,144.913 215.543,148.946 211.238 C 150.017 210.095,150.823 209.089,150.737 209.003 C 150.650 208.917,148.658 210.855,146.309 213.309 M106.001 218.159 C 113.200 225.632,113.600 226.029,113.600 225.705 C 113.600 225.532,110.945 222.782,107.701 219.595 C 103.408 215.378,102.945 214.987,106.001 218.159 M167.400 219.404 C 166.300 220.549,163.241 223.716,160.602 226.443 C 157.543 229.604,158.334 228.905,162.785 224.516 C 166.624 220.730,169.683 217.562,169.583 217.477 C 169.482 217.393,168.500 218.260,167.400 219.404 M117.388 230.000 C 120.663 234.210,124.400 237.408,124.400 236.000 C 124.400 235.780,124.101 235.600,123.735 235.600 C 123.369 235.600,121.546 234.025,119.684 232.100 C 117.822 230.175,116.789 229.230,117.388 230.000 M279.448 232.950 C 273.856 238.775,272.247 240.519,272.965 239.977 C 274.369 238.919,282.016 231.046,281.907 230.771 C 281.848 230.623,280.742 231.603,279.448 232.950 M255.815 256.785 C 248.787 263.816,243.118 269.624,243.218 269.691 C 243.318 269.759,249.160 264.004,256.200 256.904 C 263.240 249.803,268.909 243.995,268.798 243.997 C 268.686 243.999,262.844 249.753,255.815 256.785 M149.201 262.159 C 156.400 269.632,156.800 270.029,156.800 269.705 C 156.800 269.532,154.145 266.782,150.901 263.595 C 146.608 259.378,146.145 258.987,149.201 262.159 M160.624 274.032 C 162.151 275.700,163.482 276.998,163.582 276.917 C 163.681 276.836,162.432 275.472,160.805 273.885 L 157.847 271.000 160.624 274.032 M237.025 276.000 C 235.307 277.760,234.075 279.200,234.286 279.200 C 234.498 279.200,235.267 278.525,235.995 277.700 C 236.723 276.875,238.049 275.435,238.943 274.500 C 239.836 273.565,240.472 272.800,240.357 272.800 C 240.242 272.800,238.742 274.240,237.025 276.000 M166.000 279.725 C 166.000 279.794,166.585 280.379,167.300 281.025 L 168.600 282.200 167.425 280.900 C 166.330 279.688,166.000 279.416,166.000 279.725 M232.062 281.131 C 231.327 281.939,229.803 283.545,228.676 284.700 C 227.549 285.855,226.715 286.800,226.822 286.800 C 226.929 286.800,228.629 285.180,230.600 283.200 C 232.571 281.220,234.007 279.614,233.792 279.631 C 233.576 279.647,232.798 280.322,232.062 281.131 M173.608 287.400 C 176.134 290.040,178.282 292.148,178.382 292.084 C 178.483 292.021,176.416 289.861,173.791 287.284 L 169.017 282.600 173.608 287.400 M224.975 288.500 L 223.800 289.800 225.100 288.625 C 226.312 287.530,226.584 287.200,226.275 287.200 C 226.206 287.200,225.621 287.785,224.975 288.500 M196.400 309.700 C 196.400 309.865,197.705 309.975,199.300 309.946 C 202.354 309.888,202.021 309.709,198.500 309.516 C 197.345 309.452,196.400 309.535,196.400 309.700 " stroke="none" fill="#5c5c5c" fill-rule="evenodd"></path><path id="path3" d="M101.200 90.400 C 101.200 90.620,100.480 90.800,99.600 90.800 C 98.697 90.800,98.000 90.993,98.000 91.243 C 98.000 91.486,98.285 91.576,98.633 91.443 C 98.981 91.309,100.556 91.173,102.133 91.140 C 103.710 91.107,104.502 91.005,103.893 90.913 C 103.284 90.821,102.890 90.578,103.017 90.373 C 103.144 90.168,102.787 90.000,102.224 90.000 C 101.661 90.000,101.200 90.180,101.200 90.400 M296.800 90.372 C 296.800 90.577,296.395 90.822,295.900 90.918 C 295.405 91.013,296.260 91.095,297.800 91.099 C 299.340 91.104,300.285 91.025,299.900 90.924 C 299.515 90.824,299.200 90.575,299.200 90.371 C 299.200 90.167,298.660 90.000,298.000 90.000 C 297.340 90.000,296.800 90.167,296.800 90.372 M105.458 91.406 C 105.566 91.689,105.958 92.029,106.328 92.161 C 106.697 92.293,107.250 92.514,107.556 92.652 C 108.630 93.138,107.587 92.052,106.422 91.471 C 105.532 91.027,105.306 91.012,105.458 91.406 M303.600 92.490 C 303.600 92.625,304.635 93.786,305.900 95.070 C 307.165 96.354,309.218 98.574,310.462 100.002 C 313.475 103.461,325.189 115.345,325.389 115.145 C 325.475 115.058,323.489 112.871,320.973 110.285 C 318.458 107.698,316.400 105.449,316.400 105.285 C 316.400 105.122,314.186 102.741,311.480 99.994 C 305.854 94.283,303.600 92.137,303.600 92.490 M91.356 97.180 C 86.742 101.822,85.200 103.469,85.200 103.756 C 85.200 103.870,83.221 105.996,80.803 108.481 C 78.384 110.967,76.404 113.141,76.403 113.314 C 76.397 113.913,92.088 97.642,95.149 93.876 C 96.513 92.198,94.992 93.522,91.356 97.180 M116.881 102.200 C 120.873 106.765,137.965 124.168,138.213 123.920 C 138.304 123.829,133.227 118.545,126.930 112.178 C 120.634 105.810,116.112 101.320,116.881 102.200 M273.738 111.487 C 268.492 116.924,255.825 129.839,245.588 140.187 C 235.351 150.534,225.467 160.620,223.623 162.600 C 221.780 164.580,211.975 174.576,201.835 184.814 C 191.696 195.052,177.664 209.362,170.653 216.614 L 157.906 229.800 172.653 214.973 C 180.764 206.818,188.818 198.628,190.551 196.773 C 192.284 194.918,201.824 185.203,211.751 175.185 C 221.678 165.166,231.849 154.816,234.354 152.185 C 236.858 149.553,246.578 139.650,255.954 130.177 C 280.743 105.132,284.143 101.600,283.461 101.600 C 283.359 101.600,278.983 106.049,273.738 111.487 M61.972 127.705 C 54.807 134.797,48.086 141.360,47.035 142.288 C 45.985 143.217,45.195 144.184,45.279 144.437 C 45.393 144.779,61.433 128.965,75.167 114.970 C 75.258 114.876,75.258 114.802,75.167 114.805 C 75.075 114.808,69.138 120.613,61.972 127.705 M337.600 127.800 C 343.867 134.070,349.085 139.200,349.195 139.200 C 349.305 139.200,344.267 134.070,338.000 127.800 C 331.733 121.530,326.515 116.400,326.405 116.400 C 326.295 116.400,331.333 121.530,337.600 127.800 M151.810 137.986 C 159.076 145.364,169.673 156.170,175.361 162.000 C 181.048 167.830,183.656 170.350,181.156 167.600 C 178.657 164.850,168.059 154.044,157.606 143.586 C 147.153 133.128,144.545 130.608,151.810 137.986 M349.600 139.467 C 349.600 139.632,350.950 141.081,352.600 142.689 C 354.250 144.297,355.600 145.444,355.600 145.238 C 355.600 145.032,354.525 143.815,353.212 142.532 C 350.250 139.639,349.600 139.088,349.600 139.467 M356.165 150.600 C 356.163 152.580,356.227 153.705,356.307 153.100 C 356.388 152.495,356.621 152.000,356.827 152.000 C 357.032 152.000,357.200 151.280,357.200 150.400 C 357.200 149.520,357.033 148.800,356.828 148.800 C 356.623 148.800,356.391 148.395,356.312 147.900 C 356.232 147.405,356.166 148.620,356.165 150.600 M43.600 148.200 C 43.600 148.530,43.420 148.800,43.200 148.800 C 42.980 148.800,42.800 149.520,42.800 150.400 C 42.800 151.280,42.967 152.000,43.172 152.000 C 43.377 152.000,43.612 152.405,43.695 152.900 C 43.778 153.395,43.851 152.405,43.858 150.700 C 43.864 148.995,43.809 147.600,43.735 147.600 C 43.661 147.600,43.600 147.870,43.600 148.200 M44.400 155.620 C 44.400 155.838,45.521 157.048,46.891 158.308 C 48.260 159.569,51.680 162.841,54.491 165.580 C 57.301 168.319,59.600 170.462,59.600 170.341 C 59.600 170.221,56.180 166.770,52.000 162.673 C 47.820 158.576,44.400 155.402,44.400 155.620 M348.000 162.692 C 343.346 167.407,342.901 167.929,346.215 164.786 C 348.644 162.484,351.563 159.790,352.702 158.800 C 354.655 157.103,355.189 156.393,354.500 156.406 C 354.335 156.409,351.410 159.238,348.000 162.692 M181.193 177.100 C 178.922 179.465,168.320 190.230,157.632 201.021 C 146.944 211.813,136.510 222.433,134.444 224.621 C 126.038 233.526,124.317 235.239,123.909 235.103 C 123.674 235.025,119.070 230.560,113.678 225.180 L 103.874 215.400 113.590 225.400 C 119.786 231.778,123.612 235.421,124.153 235.458 C 125.025 235.518,126.724 233.816,141.770 217.800 C 145.490 213.840,156.874 202.265,167.067 192.079 C 183.113 176.043,186.207 172.800,185.461 172.800 C 185.385 172.800,183.464 174.735,181.193 177.100 M69.804 180.764 C 83.391 194.843,91.678 203.255,91.820 203.113 C 91.901 203.032,85.540 196.477,77.684 188.547 C 69.828 180.617,66.282 177.115,69.804 180.764 M324.554 186.144 C 317.979 192.823,311.452 199.528,310.049 201.044 C 308.646 202.560,299.106 212.268,288.849 222.619 C 278.592 232.969,268.500 243.229,266.423 245.419 C 264.345 247.608,252.330 259.824,239.721 272.565 C 227.113 285.306,216.874 295.807,216.968 295.901 C 217.145 296.078,221.687 291.562,230.588 282.363 C 233.442 279.413,244.608 268.090,255.402 257.200 C 266.195 246.310,276.527 235.780,278.361 233.800 C 280.195 231.820,289.821 222.010,299.751 212.000 C 309.682 201.990,319.140 192.360,320.770 190.600 C 322.399 188.840,326.711 184.385,330.351 180.700 C 333.991 177.015,336.866 174.000,336.739 174.000 C 336.612 174.000,331.129 179.465,324.554 186.144 M146.886 240.405 C 142.863 244.362,139.398 247.600,139.186 247.600 C 138.974 247.600,138.800 247.960,138.800 248.400 C 138.800 248.840,138.620 249.200,138.400 249.200 C 138.180 249.200,138.000 249.476,138.000 249.814 C 138.000 250.151,139.305 249.040,140.900 247.344 C 144.535 243.480,145.645 242.325,150.575 237.273 C 156.758 230.937,154.947 232.474,146.886 240.405 M157.012 269.576 C 160.538 273.219,165.555 278.450,168.160 281.200 C 170.766 283.950,175.530 288.905,178.749 292.210 C 181.967 295.516,186.097 299.809,187.926 301.751 C 189.755 303.693,191.315 305.219,191.392 305.141 C 191.470 305.063,189.703 303.096,187.466 300.769 C 185.230 298.441,180.970 293.954,178.000 290.797 C 175.030 287.640,167.650 280.083,161.600 274.004 C 155.550 267.925,153.485 265.933,157.012 269.576 M194.800 308.800 C 194.800 309.020,195.070 309.200,195.400 309.200 C 195.730 309.200,196.000 309.020,196.000 308.800 C 196.000 308.580,195.730 308.400,195.400 308.400 C 195.070 308.400,194.800 308.580,194.800 308.800 M203.300 308.812 C 202.397 309.175,202.050 310.000,202.800 310.000 C 203.020 310.000,203.200 309.820,203.200 309.600 C 203.200 309.380,203.560 309.200,204.000 309.200 C 204.440 309.200,204.800 309.020,204.800 308.800 C 204.800 308.325,204.506 308.328,203.300 308.812 " stroke="none" fill="#3d3d3d" fill-rule="evenodd"></path><path id="path4" d="M83.660 104.651 C 83.143 105.202,82.817 105.750,82.936 105.869 C 83.152 106.085,85.200 104.230,85.200 103.818 C 85.200 103.347,84.556 103.695,83.660 104.651 M316.400 105.418 C 316.400 105.832,318.449 107.684,318.667 107.467 C 318.787 107.347,318.424 106.788,317.861 106.224 C 316.865 105.228,316.400 104.972,316.400 105.418 M73.411 115.947 L 71.022 118.600 73.711 116.012 C 75.190 114.588,76.400 113.373,76.400 113.312 C 76.400 112.843,75.457 113.675,73.411 115.947 M325.600 115.046 C 325.600 115.254,326.725 116.499,328.100 117.813 L 330.600 120.200 328.200 117.610 C 326.880 116.185,325.755 114.940,325.700 114.843 C 325.645 114.746,325.600 114.837,325.600 115.046 M260.612 124.795 L 257.423 128.200 260.793 124.915 C 262.647 123.108,264.082 121.576,263.982 121.510 C 263.882 121.443,262.365 122.922,260.612 124.795 M138.400 123.844 C 138.400 124.052,139.705 125.477,141.300 127.011 L 144.200 129.800 141.400 126.811 C 139.860 125.167,138.555 123.742,138.500 123.644 C 138.445 123.547,138.400 123.636,138.400 123.844 M225.578 160.300 L 224.200 161.800 225.700 160.422 C 227.096 159.138,227.384 158.800,227.078 158.800 C 227.012 158.800,226.337 159.475,225.578 160.300 M174.800 160.925 C 174.800 160.994,175.385 161.579,176.100 162.225 L 177.400 163.400 176.225 162.100 C 175.130 160.888,174.800 160.616,174.800 160.925 M217.387 168.900 L 215.000 171.400 217.500 169.013 C 218.875 167.699,220.000 166.574,220.000 166.513 C 220.000 166.217,219.605 166.578,217.387 168.900 M183.200 169.800 C 184.395 171.010,185.463 172.000,185.573 172.000 C 185.683 172.000,184.795 171.010,183.600 169.800 C 182.405 168.590,181.337 167.600,181.227 167.600 C 181.117 167.600,182.005 168.590,183.200 169.800 M177.775 181.300 L 176.600 182.600 177.900 181.425 C 178.615 180.779,179.200 180.194,179.200 180.125 C 179.200 179.816,178.870 180.088,177.775 181.300 M73.400 184.800 C 74.706 186.120,75.865 187.200,75.975 187.200 C 76.085 187.200,75.106 186.120,73.800 184.800 C 72.494 183.480,71.335 182.400,71.225 182.400 C 71.115 182.400,72.094 183.480,73.400 184.800 M326.187 184.900 L 323.800 187.400 326.300 185.013 C 327.675 183.699,328.800 182.574,328.800 182.513 C 328.800 182.217,328.405 182.578,326.187 184.900 M319.200 192.200 C 318.228 193.190,317.523 194.000,317.633 194.000 C 317.743 194.000,318.628 193.190,319.600 192.200 C 320.572 191.210,321.277 190.400,321.167 190.400 C 321.057 190.400,320.172 191.210,319.200 192.200 M152.212 206.787 C 150.248 208.761,148.722 210.427,148.821 210.491 C 148.919 210.554,150.609 208.940,152.577 206.903 C 154.544 204.866,156.070 203.200,155.968 203.200 C 155.867 203.200,154.176 204.814,152.212 206.787 M181.385 205.300 L 179.400 207.400 181.500 205.415 C 182.655 204.323,183.600 203.378,183.600 203.315 C 183.600 203.017,183.229 203.349,181.385 205.300 M175.400 211.520 C 175.180 211.689,173.740 213.171,172.200 214.814 L 169.401 217.800 172.700 214.609 C 174.515 212.855,176.000 211.370,176.000 211.309 C 176.000 211.132,175.825 211.193,175.400 211.520 M140.839 218.715 C 140.531 219.092,139.005 220.705,137.449 222.300 C 135.893 223.895,134.796 225.176,135.010 225.148 C 135.535 225.077,142.252 217.996,141.775 218.015 C 141.569 218.024,141.148 218.339,140.839 218.715 M116.200 228.400 C 117.728 229.940,119.069 231.200,119.179 231.200 C 119.289 231.200,118.128 229.940,116.600 228.400 C 115.072 226.860,113.731 225.600,113.621 225.600 C 113.511 225.600,114.672 226.860,116.200 228.400 M283.588 228.300 L 281.000 231.000 283.700 228.412 C 285.185 226.988,286.400 225.773,286.400 225.712 C 286.400 225.417,285.993 225.792,283.588 228.300 M149.950 237.006 C 148.273 238.653,147.018 240.000,147.160 240.000 C 147.303 240.000,148.761 238.650,150.400 237.000 C 152.039 235.350,153.294 234.003,153.190 234.006 C 153.085 234.010,151.628 235.360,149.950 237.006 M275.775 236.500 L 274.600 237.800 275.900 236.625 C 277.112 235.530,277.384 235.200,277.075 235.200 C 277.006 235.200,276.421 235.785,275.775 236.500 M159.800 272.800 C 161.550 274.560,163.071 276.000,163.181 276.000 C 163.291 276.000,161.950 274.560,160.200 272.800 C 158.450 271.040,156.929 269.600,156.819 269.600 C 156.709 269.600,158.050 271.040,159.800 272.800 M238.191 274.500 L 235.000 277.800 238.300 274.609 C 241.365 271.646,241.782 271.200,241.491 271.200 C 241.430 271.200,239.945 272.685,238.191 274.500 M167.583 280.900 C 169.241 282.666,169.600 282.984,169.600 282.683 C 169.600 282.619,168.745 281.764,167.700 280.783 L 165.800 279.000 167.583 280.900 M227.988 285.100 L 225.400 287.800 228.100 285.212 C 230.608 282.807,230.983 282.400,230.688 282.400 C 230.627 282.400,229.412 283.615,227.988 285.100 M181.000 294.800 C 181.859 295.680,182.652 296.400,182.762 296.400 C 182.872 296.400,182.259 295.680,181.400 294.800 C 180.541 293.920,179.748 293.200,179.638 293.200 C 179.528 293.200,180.141 293.920,181.000 294.800 " stroke="none" fill="#545454" fill-rule="evenodd"></path></g></svg>